<svg xmlns="http://www.w3.org/2000/svg" version="1.1" xmlns:xlink="http://www.w3.org/1999/xlink" xmlns:svgjs="http://svgjs.dev/svgjs" viewBox="0 0 1422 800"><g shape-rendering="crispEdges"><g transform="translate(-75 -25)"><use xlink:href="#SvgjsSymbol1003" x="468.75" y="731.25" fill="#ec058e"></use><use xlink:href="#SvgjsSymbol1004" x="468.75" y="731.25" fill="#ff5bbe"></use><use xlink:href="#SvgjsSymbol1005" x="468.75" y="731.25" fill="#b40061"></use></g><g transform="translate(-75 -25)"><use xlink:href="#SvgjsSymbol1003" x="506.25" y="787.5" fill="#ec058e"></use><use xlink:href="#SvgjsSymbol1004" x="506.25" y="787.5" fill="#ff5bbe"></use><use xlink:href="#SvgjsSymbol1005" x="506.25" y="787.5" fill="#b40061"></use></g><g transform="translate(-75 -25)"><use xlink:href="#SvgjsSymbol1003" x="581.25" y="787.5" fill="#ec058e"></use><use xlink:href="#SvgjsSymbol1004" x="581.25" y="787.5" fill="#ff5bbe"></use><use xlink:href="#SvgjsSymbol1005" x="581.25" y="787.5" fill="#b40061"></use></g><g transform="translate(-75 -25)"><use xlink:href="#SvgjsSymbol1003" x="393.75" y="731.25" fill="#ec058e"></use><use xlink:href="#SvgjsSymbol1004" x="393.75" y="731.25" fill="#ff5bbe"></use><use xlink:href="#SvgjsSymbol1005" x="393.75" y="731.25" fill="#b40061"></use></g><g transform="translate(-75 -25)"><use xlink:href="#SvgjsSymbol1003" x="431.25" y="787.5" fill="#ec058e"></use><use xlink:href="#SvgjsSymbol1004" x="431.25" y="787.5" fill="#ff5bbe"></use><use xlink:href="#SvgjsSymbol1005" x="431.25" y="787.5" fill="#b40061"></use></g><g transform="translate(-75 -25)"><use xlink:href="#SvgjsSymbol1003" x="693.75" y="731.25" fill="#ec058e"></use><use xlink:href="#SvgjsSymbol1004" x="693.75" y="731.25" fill="#ff5bbe"></use><use xlink:href="#SvgjsSymbol1005" x="693.75" y="731.25" fill="#b40061"></use></g><g transform="translate(-75 -25)"><use xlink:href="#SvgjsSymbol1003" x="768.75" y="731.25" fill="#ec058e"></use><use xlink:href="#SvgjsSymbol1004" x="768.75" y="731.25" fill="#ff5bbe"></use><use xlink:href="#SvgjsSymbol1005" x="768.75" y="731.25" fill="#b40061"></use></g><g transform="translate(-75 -25)"><use xlink:href="#SvgjsSymbol1003" x="731.25" y="675" fill="#ec058e"></use><use xlink:href="#SvgjsSymbol1005" x="731.25" y="675" fill="#b40061"></use></g><g transform="translate(-75 -25)"><use xlink:href="#SvgjsSymbol1003" x="581.25" y="675" fill="#ec058e"></use><use xlink:href="#SvgjsSymbol1004" x="581.25" y="675" fill="#ff5bbe"></use></g><g transform="translate(-75 -25)"><use xlink:href="#SvgjsSymbol1004" x="506.25" y="675" fill="#ff5bbe"></use><use xlink:href="#SvgjsSymbol1005" x="506.25" y="675" fill="#b40061"></use></g><g transform="translate(-75 -25)"><use xlink:href="#SvgjsSymbol1003" x="543.75" y="618.75" fill="#ec058e"></use><use xlink:href="#SvgjsSymbol1004" x="543.75" y="618.75" fill="#ff5bbe"></use><use xlink:href="#SvgjsSymbol1005" x="543.75" y="618.75" fill="#b40061"></use></g><g transform="translate(-75 -25)"><use xlink:href="#SvgjsSymbol1003" x="318.75" y="768.75" fill="#ec058e"></use><use xlink:href="#SvgjsSymbol1004" x="318.75" y="768.75" fill="#ff5bbe"></use><use xlink:href="#SvgjsSymbol1005" x="318.75" y="768.75" fill="#b40061"></use></g><g transform="translate(-75 -25)"><use xlink:href="#SvgjsSymbol1003" x="243.75" y="768.75" fill="#ec058e"></use><use xlink:href="#SvgjsSymbol1004" x="243.75" y="768.75" fill="#ff5bbe"></use><use xlink:href="#SvgjsSymbol1005" x="243.75" y="768.75" fill="#b40061"></use></g><g transform="translate(-75 -25)"><use xlink:href="#SvgjsSymbol1003" x="168.75" y="768.75" fill="#ec058e"></use><use xlink:href="#SvgjsSymbol1004" x="168.75" y="768.75" fill="#ff5bbe"></use><use xlink:href="#SvgjsSymbol1005" x="168.75" y="768.75" fill="#b40061"></use></g><g transform="translate(-75 -25)"><use xlink:href="#SvgjsSymbol1003" x="93.75" y="768.75" fill="#ec058e"></use><use xlink:href="#SvgjsSymbol1004" x="93.75" y="768.75" fill="#ff5bbe"></use><use xlink:href="#SvgjsSymbol1005" x="93.75" y="768.75" fill="#b40061"></use></g><g transform="translate(-75 -25)"><use xlink:href="#SvgjsSymbol1003" x="18.75" y="768.75" fill="#ec058e"></use><use xlink:href="#SvgjsSymbol1004" x="18.75" y="768.75" fill="#ff5bbe"></use><use xlink:href="#SvgjsSymbol1005" x="18.75" y="768.75" fill="#b40061"></use></g><g transform="translate(-75 -25)"><use xlink:href="#SvgjsSymbol1003" x="731.25" y="787.5" fill="#ec058e"></use><use xlink:href="#SvgjsSymbol1004" x="731.25" y="787.5" fill="#ff5bbe"></use><use xlink:href="#SvgjsSymbol1005" x="731.25" y="787.5" fill="#b40061"></use></g><g transform="translate(-75 -25)"><use xlink:href="#SvgjsSymbol1003" x="656.25" y="787.5" fill="#ec058e"></use><use xlink:href="#SvgjsSymbol1004" x="656.25" y="787.5" fill="#ff5bbe"></use><use xlink:href="#SvgjsSymbol1005" x="656.25" y="787.5" fill="#b40061"></use></g><g transform="translate(-75 -25)"><use xlink:href="#SvgjsSymbol1003" x="731.25" y="150" fill="#ec058e"></use><use xlink:href="#SvgjsSymbol1004" x="731.25" y="150" fill="#ff5bbe"></use><use xlink:href="#SvgjsSymbol1005" x="731.25" y="150" fill="#b40061"></use></g><g transform="translate(-75 -25)"><use xlink:href="#SvgjsSymbol1003" x="693.75" y="93.75" fill="#ec058e"></use><use xlink:href="#SvgjsSymbol1004" x="693.75" y="93.75" fill="#ff5bbe"></use><use xlink:href="#SvgjsSymbol1005" x="693.75" y="93.75" fill="#b40061"></use></g><g transform="translate(-75 -25)"><use xlink:href="#SvgjsSymbol1003" x="356.25" y="787.5" fill="#ec058e"></use><use xlink:href="#SvgjsSymbol1004" x="356.25" y="787.5" fill="#ff5bbe"></use><use xlink:href="#SvgjsSymbol1005" x="356.25" y="787.5" fill="#b40061"></use></g><g transform="translate(-75 -25)"><use xlink:href="#SvgjsSymbol1003" x="318.75" y="731.25" fill="#ec058e"></use><use xlink:href="#SvgjsSymbol1004" x="318.75" y="731.25" fill="#ff5bbe"></use><use xlink:href="#SvgjsSymbol1005" x="318.75" y="731.25" fill="#b40061"></use></g><g transform="translate(-75 -25)"><use xlink:href="#SvgjsSymbol1003" x="243.75" y="731.25" fill="#ec058e"></use><use xlink:href="#SvgjsSymbol1004" x="243.75" y="731.25" fill="#ff5bbe"></use><use xlink:href="#SvgjsSymbol1005" x="243.75" y="731.25" fill="#b40061"></use></g><g transform="translate(-75 -25)"><use xlink:href="#SvgjsSymbol1003" x="168.75" y="731.25" fill="#ec058e"></use><use xlink:href="#SvgjsSymbol1004" x="168.75" y="731.25" fill="#ff5bbe"></use><use xlink:href="#SvgjsSymbol1005" x="168.75" y="731.25" fill="#b40061"></use></g><g transform="translate(-75 -25)"><use xlink:href="#SvgjsSymbol1003" x="93.75" y="731.25" fill="#ec058e"></use><use xlink:href="#SvgjsSymbol1004" x="93.75" y="731.25" fill="#ff5bbe"></use><use xlink:href="#SvgjsSymbol1005" x="93.75" y="731.25" fill="#b40061"></use></g><g transform="translate(-75 -25)"><use xlink:href="#SvgjsSymbol1003" x="18.75" y="731.25" fill="#ec058e"></use><use xlink:href="#SvgjsSymbol1004" x="18.75" y="731.25" fill="#ff5bbe"></use><use xlink:href="#SvgjsSymbol1005" x="18.75" y="731.25" fill="#b40061"></use></g><g transform="translate(-75 -25)"><use xlink:href="#SvgjsSymbol1003" x="843.75" y="731.25" fill="#ec058e"></use><use xlink:href="#SvgjsSymbol1004" x="843.75" y="731.25" fill="#ff5bbe"></use><use xlink:href="#SvgjsSymbol1005" x="843.75" y="731.25" fill="#b40061"></use></g><g transform="translate(-75 -25)"><use xlink:href="#SvgjsSymbol1003" x="918.75" y="731.25" fill="#ec058e"></use><use xlink:href="#SvgjsSymbol1004" x="918.75" y="731.25" fill="#ff5bbe"></use><use xlink:href="#SvgjsSymbol1005" x="918.75" y="731.25" fill="#b40061"></use></g><g transform="translate(-75 -25)"><use xlink:href="#SvgjsSymbol1003" x="993.75" y="731.25" fill="#ec058e"></use><use xlink:href="#SvgjsSymbol1004" x="993.75" y="731.25" fill="#ff5bbe"></use><use xlink:href="#SvgjsSymbol1005" x="993.75" y="731.25" fill="#b40061"></use></g><g transform="translate(-75 -25)"><use xlink:href="#SvgjsSymbol1003" x="806.25" y="675" fill="#266dd3"></use><use xlink:href="#SvgjsSymbol1004" x="806.25" y="675" fill="#6a9bff"></use><use xlink:href="#SvgjsSymbol1005" x="806.25" y="675" fill="#0043a1"></use></g><g transform="translate(-75 -25)"><use xlink:href="#SvgjsSymbol1003" x="956.25" y="675" fill="#266dd3"></use><use xlink:href="#SvgjsSymbol1004" x="956.25" y="675" fill="#6a9bff"></use><use xlink:href="#SvgjsSymbol1005" x="956.25" y="675" fill="#0043a1"></use></g><g transform="translate(-75 -25)"><use xlink:href="#SvgjsSymbol1003" x="918.75" y="618.75" fill="#266dd3"></use><use xlink:href="#SvgjsSymbol1004" x="918.75" y="618.75" fill="#6a9bff"></use></g><g transform="translate(-75 -25)"><use xlink:href="#SvgjsSymbol1003" x="131.25" y="675" fill="#266dd3"></use><use xlink:href="#SvgjsSymbol1004" x="131.25" y="675" fill="#6a9bff"></use></g><g transform="translate(-75 -25)"><use xlink:href="#SvgjsSymbol1003" x="56.25" y="675" fill="#266dd3"></use><use xlink:href="#SvgjsSymbol1004" x="56.25" y="675" fill="#6a9bff"></use><use xlink:href="#SvgjsSymbol1005" x="56.25" y="675" fill="#0043a1"></use></g><g transform="translate(-75 -25)"><use xlink:href="#SvgjsSymbol1003" x="206.25" y="675" fill="#266dd3"></use><use xlink:href="#SvgjsSymbol1004" x="206.25" y="675" fill="#6a9bff"></use><use xlink:href="#SvgjsSymbol1005" x="206.25" y="675" fill="#0043a1"></use></g><g transform="translate(-75 -25)"><use xlink:href="#SvgjsSymbol1003" x="281.25" y="675" fill="#266dd3"></use><use xlink:href="#SvgjsSymbol1004" x="281.25" y="675" fill="#6a9bff"></use><use xlink:href="#SvgjsSymbol1005" x="281.25" y="675" fill="#0043a1"></use></g><g transform="translate(-75 -25)"><use xlink:href="#SvgjsSymbol1003" x="243.75" y="618.75" fill="#266dd3"></use><use xlink:href="#SvgjsSymbol1004" x="243.75" y="618.75" fill="#6a9bff"></use><use xlink:href="#SvgjsSymbol1005" x="243.75" y="618.75" fill="#0043a1"></use></g><g transform="translate(-75 -25)"><use xlink:href="#SvgjsSymbol1003" x="318.75" y="618.75" fill="#266dd3"></use><use xlink:href="#SvgjsSymbol1004" x="318.75" y="618.75" fill="#6a9bff"></use><use xlink:href="#SvgjsSymbol1005" x="318.75" y="618.75" fill="#0043a1"></use></g><g transform="translate(-75 -25)"><use xlink:href="#SvgjsSymbol1003" x="281.25" y="562.5" fill="#266dd3"></use><use xlink:href="#SvgjsSymbol1004" x="281.25" y="562.5" fill="#6a9bff"></use><use xlink:href="#SvgjsSymbol1005" x="281.25" y="562.5" fill="#0043a1"></use></g><g transform="translate(-75 -25)"><use xlink:href="#SvgjsSymbol1003" x="468.75" y="618.75" fill="#266dd3"></use><use xlink:href="#SvgjsSymbol1004" x="468.75" y="618.75" fill="#6a9bff"></use><use xlink:href="#SvgjsSymbol1005" x="468.75" y="618.75" fill="#0043a1"></use></g><g transform="translate(-75 -25)"><use xlink:href="#SvgjsSymbol1003" x="431.25" y="675" fill="#266dd3"></use><use xlink:href="#SvgjsSymbol1004" x="431.25" y="675" fill="#6a9bff"></use><use xlink:href="#SvgjsSymbol1005" x="431.25" y="675" fill="#0043a1"></use></g><g transform="translate(-75 -25)"><use xlink:href="#SvgjsSymbol1003" x="656.25" y="675" fill="#266dd3"></use><use xlink:href="#SvgjsSymbol1004" x="656.25" y="675" fill="#6a9bff"></use><use xlink:href="#SvgjsSymbol1005" x="656.25" y="675" fill="#0043a1"></use></g><g transform="translate(-75 -25)"><use xlink:href="#SvgjsSymbol1003" x="581.25" y="600" fill="#266dd3"></use><use xlink:href="#SvgjsSymbol1005" x="581.25" y="600" fill="#0043a1"></use></g><g transform="translate(-75 -25)"><use xlink:href="#SvgjsSymbol1003" x="356.25" y="675" fill="#266dd3"></use><use xlink:href="#SvgjsSymbol1005" x="356.25" y="675" fill="#0043a1"></use></g><g transform="translate(-75 -25)"><use xlink:href="#SvgjsSymbol1004" x="1068.75" y="731.25" fill="#6a9bff"></use><use xlink:href="#SvgjsSymbol1005" x="1068.75" y="731.25" fill="#0043a1"></use></g><g transform="translate(-75 -25)"><use xlink:href="#SvgjsSymbol1003" x="881.25" y="787.5" fill="#266dd3"></use><use xlink:href="#SvgjsSymbol1004" x="881.25" y="787.5" fill="#6a9bff"></use><use xlink:href="#SvgjsSymbol1005" x="881.25" y="787.5" fill="#0043a1"></use></g><g transform="translate(-75 -25)"><use xlink:href="#SvgjsSymbol1003" x="806.25" y="787.5" fill="#266dd3"></use><use xlink:href="#SvgjsSymbol1004" x="806.25" y="787.5" fill="#6a9bff"></use><use xlink:href="#SvgjsSymbol1005" x="806.25" y="787.5" fill="#0043a1"></use></g><g transform="translate(-75 -25)"><use xlink:href="#SvgjsSymbol1003" x="956.25" y="787.5" fill="#266dd3"></use><use xlink:href="#SvgjsSymbol1004" x="956.25" y="787.5" fill="#6a9bff"></use><use xlink:href="#SvgjsSymbol1005" x="956.25" y="787.5" fill="#0043a1"></use></g><g transform="translate(-75 -25)"><use xlink:href="#SvgjsSymbol1003" x="1031.25" y="787.5" fill="#266dd3"></use><use xlink:href="#SvgjsSymbol1004" x="1031.25" y="787.5" fill="#6a9bff"></use><use xlink:href="#SvgjsSymbol1005" x="1031.25" y="787.5" fill="#0043a1"></use></g><g transform="translate(-75 -25)"><use xlink:href="#SvgjsSymbol1003" x="1143.75" y="731.25" fill="#266dd3"></use><use xlink:href="#SvgjsSymbol1004" x="1143.75" y="731.25" fill="#6a9bff"></use><use xlink:href="#SvgjsSymbol1005" x="1143.75" y="731.25" fill="#0043a1"></use></g><g transform="translate(-75 -25)"><use xlink:href="#SvgjsSymbol1003" x="1218.75" y="731.25" fill="#266dd3"></use><use xlink:href="#SvgjsSymbol1004" x="1218.75" y="731.25" fill="#6a9bff"></use><use xlink:href="#SvgjsSymbol1005" x="1218.75" y="731.25" fill="#0043a1"></use></g><g transform="translate(-75 -25)"><use xlink:href="#SvgjsSymbol1003" x="1293.75" y="731.25" fill="#266dd3"></use><use xlink:href="#SvgjsSymbol1004" x="1293.75" y="731.25" fill="#6a9bff"></use><use xlink:href="#SvgjsSymbol1005" x="1293.75" y="731.25" fill="#0043a1"></use></g><g transform="translate(-75 -25)"><use xlink:href="#SvgjsSymbol1003" x="1368.75" y="731.25" fill="#266dd3"></use><use xlink:href="#SvgjsSymbol1004" x="1368.75" y="731.25" fill="#6a9bff"></use><use xlink:href="#SvgjsSymbol1005" x="1368.75" y="731.25" fill="#0043a1"></use></g><g transform="translate(-75 -25)"><use xlink:href="#SvgjsSymbol1003" x="1331.25" y="787.5" fill="#266dd3"></use><use xlink:href="#SvgjsSymbol1004" x="1331.25" y="787.5" fill="#6a9bff"></use><use xlink:href="#SvgjsSymbol1005" x="1331.25" y="787.5" fill="#0043a1"></use></g><g transform="translate(-75 -25)"><use xlink:href="#SvgjsSymbol1003" x="1256.25" y="787.5" fill="#266dd3"></use><use xlink:href="#SvgjsSymbol1004" x="1256.25" y="787.5" fill="#6a9bff"></use><use xlink:href="#SvgjsSymbol1005" x="1256.25" y="787.5" fill="#0043a1"></use></g><g transform="translate(-75 -25)"><use xlink:href="#SvgjsSymbol1003" x="1181.25" y="787.5" fill="#266dd3"></use><use xlink:href="#SvgjsSymbol1004" x="1181.25" y="787.5" fill="#6a9bff"></use><use xlink:href="#SvgjsSymbol1005" x="1181.25" y="787.5" fill="#0043a1"></use></g><g transform="translate(-75 -25)"><use xlink:href="#SvgjsSymbol1003" x="1106.25" y="787.5" fill="#266dd3"></use><use xlink:href="#SvgjsSymbol1004" x="1106.25" y="787.5" fill="#6a9bff"></use><use xlink:href="#SvgjsSymbol1005" x="1106.25" y="787.5" fill="#0043a1"></use></g><g transform="translate(-75 -25)"><use xlink:href="#SvgjsSymbol1003" x="1181.25" y="675" fill="#266dd3"></use><use xlink:href="#SvgjsSymbol1004" x="1181.25" y="675" fill="#6a9bff"></use><use xlink:href="#SvgjsSymbol1005" x="1181.25" y="675" fill="#0043a1"></use></g><g transform="translate(-75 -25)"><use xlink:href="#SvgjsSymbol1003" x="1331.25" y="675" fill="#266dd3"></use><use xlink:href="#SvgjsSymbol1004" x="1331.25" y="675" fill="#6a9bff"></use><use xlink:href="#SvgjsSymbol1005" x="1331.25" y="675" fill="#0043a1"></use></g><g transform="translate(-75 -25)"><use xlink:href="#SvgjsSymbol1003" x="1406.25" y="675" fill="#266dd3"></use><use xlink:href="#SvgjsSymbol1004" x="1406.25" y="675" fill="#6a9bff"></use><use xlink:href="#SvgjsSymbol1005" x="1406.25" y="675" fill="#0043a1"></use></g><g transform="translate(-75 -25)"><use xlink:href="#SvgjsSymbol1003" x="1368.75" y="618.75" fill="#266dd3"></use><use xlink:href="#SvgjsSymbol1004" x="1368.75" y="618.75" fill="#6a9bff"></use><use xlink:href="#SvgjsSymbol1005" x="1368.75" y="618.75" fill="#0043a1"></use></g><g transform="translate(-75 -25)"><use xlink:href="#SvgjsSymbol1003" x="1293.75" y="618.75" fill="#266dd3"></use><use xlink:href="#SvgjsSymbol1004" x="1293.75" y="618.75" fill="#6a9bff"></use><use xlink:href="#SvgjsSymbol1005" x="1293.75" y="618.75" fill="#0043a1"></use></g><g transform="translate(-75 -25)"><use xlink:href="#SvgjsSymbol1003" x="1218.75" y="618.75" fill="#266dd3"></use><use xlink:href="#SvgjsSymbol1004" x="1218.75" y="618.75" fill="#6a9bff"></use><use xlink:href="#SvgjsSymbol1005" x="1218.75" y="618.75" fill="#0043a1"></use></g><g transform="translate(-75 -25)"><use xlink:href="#SvgjsSymbol1003" x="1106.25" y="675" fill="#266dd3"></use><use xlink:href="#SvgjsSymbol1004" x="1106.25" y="675" fill="#6a9bff"></use><use xlink:href="#SvgjsSymbol1005" x="1106.25" y="675" fill="#0043a1"></use></g><g transform="translate(-75 -25)"><use xlink:href="#SvgjsSymbol1003" x="1031.25" y="675" fill="#266dd3"></use><use xlink:href="#SvgjsSymbol1004" x="1031.25" y="675" fill="#6a9bff"></use><use xlink:href="#SvgjsSymbol1005" x="1031.25" y="675" fill="#0043a1"></use></g><g transform="translate(-75 -25)"><use xlink:href="#SvgjsSymbol1003" x="1143.75" y="618.75" fill="#266dd3"></use><use xlink:href="#SvgjsSymbol1004" x="1143.75" y="618.75" fill="#6a9bff"></use><use xlink:href="#SvgjsSymbol1005" x="1143.75" y="618.75" fill="#0043a1"></use></g><g transform="translate(-75 -25)"><use xlink:href="#SvgjsSymbol1003" x="1256.25" y="562.5" fill="#266dd3"></use><use xlink:href="#SvgjsSymbol1004" x="1256.25" y="562.5" fill="#6a9bff"></use><use xlink:href="#SvgjsSymbol1005" x="1256.25" y="562.5" fill="#0043a1"></use></g><g transform="translate(-75 -25)"><use xlink:href="#SvgjsSymbol1003" x="1256.25" y="675" fill="#266dd3"></use><use xlink:href="#SvgjsSymbol1005" x="1256.25" y="675" fill="#0043a1"></use></g><g transform="translate(-75 -25)"><use xlink:href="#SvgjsSymbol1003" x="993.75" y="618.75" fill="#169873"></use><use xlink:href="#SvgjsSymbol1005" x="993.75" y="618.75" fill="#006948"></use></g><g transform="translate(-75 -25)"><use xlink:href="#SvgjsSymbol1003" x="1068.75" y="618.75" fill="#169873"></use><use xlink:href="#SvgjsSymbol1004" x="1068.75" y="618.75" fill="#57caa2"></use><use xlink:href="#SvgjsSymbol1005" x="1068.75" y="618.75" fill="#006948"></use></g><g transform="translate(-75 -25)"><use xlink:href="#SvgjsSymbol1003" x="1293.75" y="506.25" fill="#169873"></use><use xlink:href="#SvgjsSymbol1004" x="1293.75" y="506.25" fill="#57caa2"></use><use xlink:href="#SvgjsSymbol1005" x="1293.75" y="506.25" fill="#006948"></use></g><g transform="translate(-75 -25)"><use xlink:href="#SvgjsSymbol1003" x="393.75" y="618.75" fill="#169873"></use><use xlink:href="#SvgjsSymbol1004" x="393.75" y="618.75" fill="#57caa2"></use><use xlink:href="#SvgjsSymbol1005" x="393.75" y="618.75" fill="#006948"></use></g><g transform="translate(-75 -25)"><use xlink:href="#SvgjsSymbol1003" x="356.25" y="562.5" fill="#169873"></use><use xlink:href="#SvgjsSymbol1004" x="356.25" y="562.5" fill="#57caa2"></use><use xlink:href="#SvgjsSymbol1005" x="356.25" y="562.5" fill="#006948"></use></g><g transform="translate(-75 -25)"><use xlink:href="#SvgjsSymbol1003" x="656.25" y="150" fill="#169873"></use><use xlink:href="#SvgjsSymbol1004" x="656.25" y="150" fill="#57caa2"></use><use xlink:href="#SvgjsSymbol1005" x="656.25" y="150" fill="#006948"></use></g><g transform="translate(-75 -25)"><use xlink:href="#SvgjsSymbol1004" x="881.25" y="675" fill="#57caa2"></use><use xlink:href="#SvgjsSymbol1005" x="881.25" y="675" fill="#006948"></use></g><g transform="translate(-75 -25)"><use xlink:href="#SvgjsSymbol1003" x="656.25" y="37.5" fill="#169873"></use><use xlink:href="#SvgjsSymbol1004" x="656.25" y="37.5" fill="#57caa2"></use><use xlink:href="#SvgjsSymbol1005" x="656.25" y="37.5" fill="#006948"></use></g><g transform="translate(-75 -25)"><use xlink:href="#SvgjsSymbol1003" x="1031.25" y="225" fill="#169873"></use><use xlink:href="#SvgjsSymbol1004" x="1031.25" y="225" fill="#57caa2"></use><use xlink:href="#SvgjsSymbol1005" x="1031.25" y="225" fill="#006948"></use></g><g transform="translate(-75 -25)"><use xlink:href="#SvgjsSymbol1003" x="1143.75" y="37.5" fill="#169873"></use><use xlink:href="#SvgjsSymbol1004" x="1143.75" y="37.5" fill="#57caa2"></use><use xlink:href="#SvgjsSymbol1005" x="1143.75" y="37.5" fill="#006948"></use></g><g transform="translate(-75 -25)"><use xlink:href="#SvgjsSymbol1003" x="581.25" y="150" fill="#ec058e"></use><use xlink:href="#SvgjsSymbol1004" x="581.25" y="150" fill="#ff5bbe"></use><use xlink:href="#SvgjsSymbol1005" x="581.25" y="150" fill="#b40061"></use></g><g transform="translate(-75 -25)"><use xlink:href="#SvgjsSymbol1003" x="93.75" y="618.75" fill="#ec058e"></use><use xlink:href="#SvgjsSymbol1004" x="93.75" y="618.75" fill="#ff5bbe"></use><use xlink:href="#SvgjsSymbol1005" x="93.75" y="618.75" fill="#b40061"></use></g><g transform="translate(-75 -25)"><use xlink:href="#SvgjsSymbol1003" x="56.25" y="562.5" fill="#ec058e"></use><use xlink:href="#SvgjsSymbol1004" x="56.25" y="562.5" fill="#ff5bbe"></use><use xlink:href="#SvgjsSymbol1005" x="56.25" y="562.5" fill="#b40061"></use></g><g transform="translate(-75 -25)"><use xlink:href="#SvgjsSymbol1003" x="18.75" y="506.25" fill="#ec058e"></use><use xlink:href="#SvgjsSymbol1004" x="18.75" y="506.25" fill="#ff5bbe"></use><use xlink:href="#SvgjsSymbol1005" x="18.75" y="506.25" fill="#b40061"></use></g><g transform="translate(-75 -25)"><use xlink:href="#SvgjsSymbol1003" x="93.75" y="506.25" fill="#ec058e"></use><use xlink:href="#SvgjsSymbol1004" x="93.75" y="506.25" fill="#ff5bbe"></use><use xlink:href="#SvgjsSymbol1005" x="93.75" y="506.25" fill="#b40061"></use></g><g transform="translate(-75 -25)"><use xlink:href="#SvgjsSymbol1003" x="18.75" y="618.75" fill="#ec058e"></use><use xlink:href="#SvgjsSymbol1004" x="18.75" y="618.75" fill="#ff5bbe"></use><use xlink:href="#SvgjsSymbol1005" x="18.75" y="618.75" fill="#b40061"></use></g><g transform="translate(0 -25)"><use xlink:href="#SvgjsSymbol1003" x="1368.75" y="731.25" fill="#ec058e"></use><use xlink:href="#SvgjsSymbol1004" x="1368.75" y="731.25" fill="#ff5bbe"></use><use xlink:href="#SvgjsSymbol1005" x="1368.75" y="731.25" fill="#b40061"></use></g><g transform="translate(0 -25)"><use xlink:href="#SvgjsSymbol1003" x="1331.25" y="787.5" fill="#ec058e"></use><use xlink:href="#SvgjsSymbol1004" x="1331.25" y="787.5" fill="#ff5bbe"></use><use xlink:href="#SvgjsSymbol1005" x="1331.25" y="787.5" fill="#b40061"></use></g><g transform="translate(0 -25)"><use xlink:href="#SvgjsSymbol1003" x="1406.25" y="675" fill="#ec058e"></use><use xlink:href="#SvgjsSymbol1004" x="1406.25" y="675" fill="#ff5bbe"></use><use xlink:href="#SvgjsSymbol1005" x="1406.25" y="675" fill="#b40061"></use></g><g transform="translate(0 -25)"><use xlink:href="#SvgjsSymbol1003" x="1368.75" y="618.75" fill="#ec058e"></use><use xlink:href="#SvgjsSymbol1004" x="1368.75" y="618.75" fill="#ff5bbe"></use><use xlink:href="#SvgjsSymbol1005" x="1368.75" y="618.75" fill="#b40061"></use></g><g transform="translate(0 -25)"><use xlink:href="#SvgjsSymbol1003" x="1331.25" y="562.5" fill="#ec058e"></use><use xlink:href="#SvgjsSymbol1004" x="1331.25" y="562.5" fill="#ff5bbe"></use><use xlink:href="#SvgjsSymbol1005" x="1331.25" y="562.5" fill="#b40061"></use></g><g transform="translate(0 -25)"><use xlink:href="#SvgjsSymbol1003" x="1256.25" y="562.5" fill="#ec058e"></use><use xlink:href="#SvgjsSymbol1004" x="1256.25" y="562.5" fill="#ff5bbe"></use><use xlink:href="#SvgjsSymbol1005" x="1256.25" y="562.5" fill="#b40061"></use></g><g transform="translate(0 -25)"><use xlink:href="#SvgjsSymbol1003" x="1031.25" y="225" fill="#ec058e"></use><use xlink:href="#SvgjsSymbol1004" x="1031.25" y="225" fill="#ff5bbe"></use><use xlink:href="#SvgjsSymbol1005" x="1031.25" y="225" fill="#b40061"></use></g><g transform="translate(0 -25)"><use xlink:href="#SvgjsSymbol1003" x="112.5" y="93.75" fill="#ec058e"></use><use xlink:href="#SvgjsSymbol1004" x="112.5" y="93.75" fill="#ff5bbe"></use><use xlink:href="#SvgjsSymbol1005" x="112.5" y="93.75" fill="#b40061"></use></g><g transform="translate(0 -25)"><use xlink:href="#SvgjsSymbol1003" x="1106.25" y="225" fill="#ec058e"></use><use xlink:href="#SvgjsSymbol1004" x="1106.25" y="225" fill="#ff5bbe"></use><use xlink:href="#SvgjsSymbol1005" x="1106.25" y="225" fill="#b40061"></use></g><g transform="translate(0 -25)"><use xlink:href="#SvgjsSymbol1003" x="1068.75" y="168.75" fill="#ec058e"></use><use xlink:href="#SvgjsSymbol1004" x="1068.75" y="168.75" fill="#ff5bbe"></use><use xlink:href="#SvgjsSymbol1005" x="1068.75" y="168.75" fill="#b40061"></use></g><g><use xlink:href="#SvgjsSymbol1003" x="37.5" y="168.75" fill="#ec058e"></use><use xlink:href="#SvgjsSymbol1004" x="37.5" y="168.75" fill="#ff5bbe"></use><use xlink:href="#SvgjsSymbol1005" x="37.5" y="168.75" fill="#b40061"></use></g><g><use xlink:href="#SvgjsSymbol1003" x="75" y="225" fill="#ec058e"></use><use xlink:href="#SvgjsSymbol1004" x="75" y="225" fill="#ff5bbe"></use><use xlink:href="#SvgjsSymbol1005" x="75" y="225" fill="#b40061"></use></g><g><use xlink:href="#SvgjsSymbol1003" x="37.5" y="281.25" fill="#ec058e"></use><use xlink:href="#SvgjsSymbol1004" x="37.5" y="281.25" fill="#ff5bbe"></use><use xlink:href="#SvgjsSymbol1005" x="37.5" y="281.25" fill="#b40061"></use></g><g><use xlink:href="#SvgjsSymbol1003" x="75" y="337.5" fill="#ec058e"></use><use xlink:href="#SvgjsSymbol1004" x="75" y="337.5" fill="#ff5bbe"></use><use xlink:href="#SvgjsSymbol1005" x="75" y="337.5" fill="#b40061"></use></g><g><use xlink:href="#SvgjsSymbol1003" x="112.5" y="281.25" fill="#ec058e"></use><use xlink:href="#SvgjsSymbol1004" x="112.5" y="281.25" fill="#ff5bbe"></use><use xlink:href="#SvgjsSymbol1005" x="112.5" y="281.25" fill="#b40061"></use></g></g><symbol id="SvgjsSymbol1000"><polygon points="0,12.5 25,0 50,12.5 25,25"></polygon></symbol><symbol id="SvgjsSymbol1001"><polygon points="0,12.5 25,25 25,50 0,37.5"></polygon></symbol><symbol id="SvgjsSymbol1002"><polygon points="25,25 50,12.5 50,37.5 25,50"></polygon></symbol><g></g><symbol id="SvgjsSymbol1003"><polygon points="0,18.75 37.5,0 75,18.75 37.5,37.5"></polygon></symbol><symbol id="SvgjsSymbol1004"><polygon points="0,18.75 37.5,37.5 37.5,75 0,56.25"></polygon></symbol><symbol id="SvgjsSymbol1005"><polygon points="37.5,37.5 75,18.75 75,56.25 37.5,75"></polygon></symbol></svg>